# xmcd
#
# Track frame offsets:
#	187
#	15267
#	33802
#	45577
#	61917
#	83302
#	98290
#	113932
#	130782
#	147587
#
# Disc length: 2285 seconds
#
# Revision: 7
# Processed by: cddbd v1.5.2PL0 Copyright (c) Steve Scherf et al.
# Submitted via: audiograbber 1.83.01
#
DISCID=6a08eb0a
DTITLE=Emmylou Harris - Pieces Of The Sky
DYEAR=1975
DGENRE=CountryRock
TTITLE0=Bluebird Wine
TTITLE1=Too Far Gone
TTITLE2=If I Could Only Win Your Love
TTITLE3=Boulder To Birmingham
TTITLE4=Before Believing
TTITLE5=Bottle Let Me Down
TTITLE6=Sleepless Nights
TTITLE7=Coat Of Many Colors
TTITLE8=For No One
TTITLE9=Queen Of The Silver Dollar
EXTD=
EXTT0=
EXTT1=
EXTT2=
EXTT3=
EXTT4=
EXTT5=
EXTT6=
EXTT7=
EXTT8=
EXTT9=
PLAYORDER=
